<svg width="40" height="40" viewBox="0 0 40 40" fill="none" xmlns="http://www.w3.org/2000/svg">
<path d="M37.622 0L34.4223 35.9958L20.0395 40L5.69631 36.0015L2.5 0H37.622Z" fill="#264DE4"/>
<path d="M31.683 33.7031L34.4173 2.94299H20.061V36.9387L31.683 33.7031Z" fill="#2965F1"/>
<path d="M9.82755 16.2966L10.2216 20.712H20.061V16.2966H9.82755Z" fill="#EBEBEB"/>
<path d="M20.0612 7.35901H20.046H9.03583L9.43552 11.7745H20.0612V7.35901Z" fill="#EBEBEB"/>
<path d="M20.0612 32.3573V27.7634L20.042 27.7685L15.1451 26.4407L14.8321 22.9192H12.4526H10.4183L11.0343 29.852L20.041 32.3629L20.0612 32.3573Z" fill="#EBEBEB"/>
<path d="M25.46 20.7113L24.9497 26.4378L20.0457 27.767V32.3607L29.0596 29.852L29.1257 29.106L30.159 17.4816L30.2663 16.296L31.06 7.35901H20.0457V11.7745H26.2414L25.8413 16.296H20.0457V20.7113H25.46Z" fill="white"/>
</svg>
