<svg width="40" height="40" viewBox="0 0 40 40" fill="none" xmlns="http://www.w3.org/2000/svg">
<path d="M20.1726 24C22.3818 24 24.1726 22.2091 24.1726 20C24.1726 17.7909 22.3818 16 20.1726 16C17.9635 16 16.1726 17.7909 16.1726 20C16.1726 22.2091 17.9635 24 20.1726 24Z" fill="#58C4DC"/>
<path d="M20.1726 27.225C30.6233 27.225 39.0953 23.9903 39.0953 20C39.0953 16.0098 30.6233 12.775 20.1726 12.775C9.72195 12.775 1.25 16.0098 1.25 20C1.25 23.9903 9.72195 27.225 20.1726 27.225Z" stroke="#58C4DC"/>
<path d="M13.9156 23.6125C19.141 32.663 26.1783 38.3826 29.634 36.3875C33.0896 34.3923 31.655 25.438 26.4297 16.3875C21.2044 7.33693 14.167 1.61737 10.7113 3.6125C7.25568 5.60763 8.69028 14.5619 13.9156 23.6125Z" stroke="#58C4DC"/>
<path d="M13.9156 16.3875C8.69025 25.438 7.25565 34.3923 10.7113 36.3874C14.167 38.3826 21.2043 32.663 26.4297 23.6125C31.655 14.5619 33.0896 5.6076 29.634 3.61247C26.1783 1.61734 19.1409 7.3369 13.9156 16.3875Z" stroke="#58C4DC"/>
</svg>
