<svg width="40" height="40" viewBox="0 0 40 40" fill="none" xmlns="http://www.w3.org/2000/svg">
<path d="M36 0H4C1.79086 0 0 1.79086 0 4V36C0 38.2091 1.79086 40 4 40H36C38.2091 40 40 38.2091 40 36V4C40 1.79086 38.2091 0 36 0Z" fill="#F7DF1E"/>
<path d="M24.37 28.749C25.1757 30.0646 26.224 31.0316 28.0779 31.0316C29.6354 31.0316 30.6303 30.2532 30.6303 29.1776C30.6303 27.8887 29.6081 27.4322 27.8938 26.6824L26.9541 26.2792C24.2418 25.1236 22.4398 23.676 22.4398 20.6157C22.4398 17.7967 24.5878 15.6506 27.9446 15.6506C30.3345 15.6506 32.0525 16.4824 33.2906 18.6602L30.3637 20.5395C29.7192 19.384 29.024 18.9287 27.9446 18.9287C26.8437 18.9287 26.1459 19.6271 26.1459 20.5395C26.1459 21.6671 26.8443 22.1236 28.457 22.8221L29.3967 23.2246C32.5903 24.5941 34.3935 25.9903 34.3935 29.1294C34.3935 32.5135 31.7351 34.3675 28.1649 34.3675C24.6741 34.3675 22.4189 32.704 21.3154 30.5237L24.37 28.749ZM11.0919 29.0748C11.6824 30.1224 12.2195 31.0081 13.511 31.0081C14.7459 31.0081 15.5249 30.5249 15.5249 28.6462V15.8652H19.2837V28.697C19.2837 32.589 17.0018 34.3605 13.671 34.3605C10.6614 34.3605 8.91858 32.803 8.03223 30.9271L11.0919 29.0748Z" fill="#131313"/>
</svg>
