<svg width="50" height="57" viewBox="0 0 50 57" fill="none" xmlns="http://www.w3.org/2000/svg">
<path d="M50 0L45.4449 51.294L24.9694 57L4.5503 51.3021L0 0H50Z" fill="#264DE4"/>
<path d="M41.5453 48.027L45.438 4.19385H25.0001V52.6378L41.5453 48.027Z" fill="#2965F1"/>
<path d="M10.4316 23.2228L10.9927 29.5147H25.0002V23.2228H10.4316Z" fill="#EBEBEB"/>
<path d="M25.0005 10.4866H24.9788H9.30469L9.8737 16.7786H25.0005V10.4866Z" fill="#EBEBEB"/>
<path d="M25.0003 46.1092V39.5629L24.9729 39.5702L18.0016 37.6781L17.556 32.6599H14.1685H11.2725L12.1494 42.5392L24.9715 46.1172L25.0003 46.1092Z" fill="#EBEBEB"/>
<path d="M32.6862 29.5136L31.9597 37.6739L24.9784 39.568V46.114L37.8107 42.5391L37.9048 41.476L39.3757 24.9113L39.5284 23.2217L40.6585 10.4866H24.9784V16.7786H33.7986L33.2291 23.2217H24.9784V29.5136H32.6862Z" fill="white"/>
</svg>
