<svg width="83" height="22" viewBox="0 0 83 22" fill="none" xmlns="http://www.w3.org/2000/svg">
<path d="M36.4453 11.0156H40.4375V16.5547C39.8385 16.7578 39.2214 16.9089 38.5859 17.0078C37.9557 17.1068 37.25 17.1562 36.4688 17.1562C35.2812 17.1562 34.2786 16.9193 33.4609 16.4453C32.6484 15.9714 32.0312 15.2969 31.6094 14.4219C31.1875 13.5417 30.9766 12.4974 30.9766 11.2891C30.9766 10.1068 31.2083 9.07552 31.6719 8.19531C32.1406 7.3151 32.8151 6.63281 33.6953 6.14844C34.5807 5.65885 35.6432 5.41406 36.8828 5.41406C37.5182 5.41406 38.1198 5.47396 38.6875 5.59375C39.2604 5.70833 39.7917 5.8724 40.2812 6.08594L39.7734 7.24219C39.3516 7.0599 38.8854 6.90365 38.375 6.77344C37.8698 6.64323 37.3464 6.57812 36.8047 6.57812C35.8724 6.57812 35.0729 6.77083 34.4062 7.15625C33.7448 7.54167 33.237 8.08594 32.8828 8.78906C32.5339 9.49219 32.3594 10.3255 32.3594 11.2891C32.3594 12.2422 32.513 13.0729 32.8203 13.7812C33.1276 14.4844 33.6068 15.0312 34.2578 15.4219C34.9089 15.8125 35.7474 16.0078 36.7734 16.0078C37.2891 16.0078 37.7318 15.9792 38.1016 15.9219C38.4714 15.8594 38.8073 15.7865 39.1094 15.7031V12.2031H36.4453V11.0156ZM44.3047 8.4375V17H43.0078V8.4375H44.3047ZM43.6719 5.23438C43.8854 5.23438 44.0677 5.30469 44.2188 5.44531C44.375 5.58073 44.4531 5.79427 44.4531 6.08594C44.4531 6.3724 44.375 6.58594 44.2188 6.72656C44.0677 6.86719 43.8854 6.9375 43.6719 6.9375C43.4479 6.9375 43.2604 6.86719 43.1094 6.72656C42.9635 6.58594 42.8906 6.3724 42.8906 6.08594C42.8906 5.79427 42.9635 5.58073 43.1094 5.44531C43.2604 5.30469 43.4479 5.23438 43.6719 5.23438ZM49.8203 16.0938C50.0339 16.0938 50.2526 16.0755 50.4766 16.0391C50.7005 16.0026 50.8828 15.9583 51.0234 15.9062V16.9141C50.8724 16.9818 50.6615 17.0391 50.3906 17.0859C50.125 17.1328 49.8646 17.1562 49.6094 17.1562C49.1562 17.1562 48.7448 17.0781 48.375 16.9219C48.0052 16.7604 47.7083 16.4896 47.4844 16.1094C47.2656 15.7292 47.1562 15.2031 47.1562 14.5312V9.45312H45.9375V8.82031L47.1641 8.3125L47.6797 6.45312H48.4609V8.4375H50.9688V9.45312H48.4609V14.4922C48.4609 15.0286 48.5833 15.4297 48.8281 15.6953C49.0781 15.9609 49.4089 16.0938 49.8203 16.0938ZM61.6094 17H60.2812V11.6172H54.2812V17H52.9531V5.57812H54.2812V10.4453H60.2812V5.57812H61.6094V17ZM71.625 8.4375V17H70.5625L70.375 15.7969H70.3047C70.1276 16.0938 69.8984 16.3438 69.6172 16.5469C69.3359 16.75 69.0182 16.901 68.6641 17C68.3151 17.1042 67.9427 17.1562 67.5469 17.1562C66.8698 17.1562 66.3021 17.0469 65.8438 16.8281C65.3854 16.6094 65.0391 16.2708 64.8047 15.8125C64.5755 15.3542 64.4609 14.7656 64.4609 14.0469V8.4375H65.7734V13.9531C65.7734 14.6667 65.9349 15.2005 66.2578 15.5547C66.5807 15.9036 67.0729 16.0781 67.7344 16.0781C68.3698 16.0781 68.875 15.9583 69.25 15.7188C69.6302 15.4792 69.9036 15.1276 70.0703 14.6641C70.237 14.1953 70.3203 13.6224 70.3203 12.9453V8.4375H71.625ZM75.6641 4.84375V7.88281C75.6641 8.23177 75.6536 8.57031 75.6328 8.89844C75.6172 9.22656 75.6042 9.48177 75.5938 9.66406H75.6641C75.8984 9.27865 76.237 8.95312 76.6797 8.6875C77.1224 8.42188 77.6875 8.28906 78.375 8.28906C79.4479 8.28906 80.3021 8.66146 80.9375 9.40625C81.5781 10.1458 81.8984 11.2474 81.8984 12.7109C81.8984 13.6745 81.7526 14.487 81.4609 15.1484C81.1693 15.8099 80.7578 16.3099 80.2266 16.6484C79.6953 16.987 79.0677 17.1562 78.3438 17.1562C77.6667 17.1562 77.1094 17.0312 76.6719 16.7812C76.2396 16.526 75.9062 16.2161 75.6719 15.8516H75.5703L75.3047 17H74.3672V4.84375H75.6641ZM78.1641 9.375C77.5443 9.375 77.0521 9.4974 76.6875 9.74219C76.3229 9.98177 76.0599 10.3464 75.8984 10.8359C75.7422 11.3203 75.6641 11.9349 75.6641 12.6797V12.75C75.6641 13.8281 75.8438 14.6536 76.2031 15.2266C76.5625 15.7943 77.2161 16.0781 78.1641 16.0781C78.9609 16.0781 79.5573 15.7865 79.9531 15.2031C80.3542 14.6198 80.5547 13.7865 80.5547 12.7031C80.5547 11.599 80.3568 10.7682 79.9609 10.2109C79.5703 9.65365 78.9714 9.375 78.1641 9.375Z" fill="white" fill-opacity="0.6"/>
<path fill-rule="evenodd" clip-rule="evenodd" d="M10 1C4.47514 1 0 5.58772 0 11.2516C0 15.7826 2.86679 19.6215 6.83855 20.9808C7.33579 21.0752 7.51995 20.7605 7.51995 20.4836C7.51995 20.2382 7.51381 19.5963 7.50767 18.7404C4.72683 19.3572 4.13751 17.3685 4.13751 17.3685C3.68324 16.1854 3.0264 15.8707 3.0264 15.8707C2.11786 15.2351 3.09392 15.2477 3.09392 15.2477C4.09454 15.3232 4.62861 16.305 4.62861 16.305C5.51872 17.872 6.96746 17.4189 7.53837 17.1546C7.63045 16.4938 7.88827 16.0407 8.17066 15.7826C5.94843 15.5246 3.61571 14.6436 3.61571 10.7166C3.61571 9.59646 4.00246 8.68395 4.64702 7.96653C4.54266 7.70851 4.19889 6.66385 4.74524 5.25418C4.74524 5.25418 5.58625 4.97728 7.4954 6.30514C8.29343 6.07858 9.14672 5.96531 10 5.95901C10.8471 5.95901 11.7066 6.07858 12.5046 6.30514C14.4137 4.97728 15.2548 5.25418 15.2548 5.25418C15.8011 6.66385 15.4573 7.70851 15.353 7.96653C15.9914 8.68395 16.3781 9.59646 16.3781 10.7166C16.3781 14.6562 14.0393 15.5183 11.8109 15.7763C12.167 16.091 12.4923 16.7203 12.4923 17.6769C12.4923 19.0488 12.48 20.1501 12.48 20.4899C12.48 20.7668 12.6581 21.0815 13.1676 20.9808C17.1393 19.6215 20 15.7826 20 11.2579C20 5.58772 15.5249 1 10 1Z" fill="white" fill-opacity="0.6"/>
</svg>
