<svg width="132" height="22" viewBox="0 0 132 22" fill="none" xmlns="http://www.w3.org/2000/svg">
<path d="M8.8457 3.30762C9.27054 3.30762 9.61523 3.65231 9.61523 4.07715C9.61511 4.50188 9.27046 4.8457 8.8457 4.8457H2.30762C1.88287 4.84574 1.53817 5.19049 1.53809 5.61523V18.6924C1.53813 19.1172 1.88284 19.4619 2.30762 19.4619H15.3848C15.8095 19.4618 16.1543 19.1171 16.1543 18.6924V12.1543C16.1543 11.7295 16.4981 11.3849 16.9229 11.3848C17.3477 11.3848 17.6924 11.7295 17.6924 12.1543V18.6924C17.6923 19.9668 16.6592 20.9999 15.3848 21H2.30762C1.03317 21 4.04577e-05 19.9668 0 18.6924V5.61523C8.12029e-05 4.34083 1.0332 3.30766 2.30762 3.30762H8.8457ZM19.2305 1C19.6553 1.00003 20 1.34474 20 1.76953V8.69238C19.9999 9.11708 19.6552 9.46188 19.2305 9.46191C18.8059 9.46172 18.4621 9.11698 18.4619 8.69238V3.62598L9.66504 12.4229C9.36464 12.7233 8.87755 12.7233 8.57715 12.4229C8.27675 12.1224 8.27675 11.6354 8.57715 11.335L17.374 2.53809H12.3076C11.883 2.53794 11.5383 2.19412 11.5381 1.76953C11.5381 1.34481 11.8829 1.00014 12.3076 1H19.2305Z" fill="#6D6DFF"/>
<path d="M40.6328 11.1797C40.6328 12.4661 40.3984 13.5417 39.9297 14.4062C39.4609 15.2656 38.7812 15.9141 37.8906 16.3516C37.0052 16.7839 35.9297 17 34.6641 17H31.5625V5.57812H35.0078C36.1693 5.57812 37.1693 5.79167 38.0078 6.21875C38.8464 6.64062 39.4922 7.26823 39.9453 8.10156C40.4036 8.92969 40.6328 9.95573 40.6328 11.1797ZM39.2344 11.2266C39.2344 10.2005 39.0625 9.35417 38.7188 8.6875C38.3802 8.02083 37.8802 7.52604 37.2188 7.20312C36.5625 6.875 35.7578 6.71094 34.8047 6.71094H32.8906V15.8594H34.5078C36.0807 15.8594 37.2604 15.4714 38.0469 14.6953C38.8385 13.9193 39.2344 12.763 39.2344 11.2266ZM46.2734 8.28125C47.0026 8.28125 47.6276 8.44271 48.1484 8.76562C48.6693 9.08854 49.0677 9.54167 49.3438 10.125C49.6198 10.7031 49.7578 11.3802 49.7578 12.1562V12.9609H43.8438C43.8594 13.9661 44.1094 14.7318 44.5938 15.2578C45.0781 15.7839 45.7604 16.0469 46.6406 16.0469C47.1823 16.0469 47.6615 15.9974 48.0781 15.8984C48.4948 15.7995 48.9271 15.6536 49.375 15.4609V16.6016C48.9427 16.7943 48.513 16.9349 48.0859 17.0234C47.6641 17.112 47.1641 17.1562 46.5859 17.1562C45.763 17.1562 45.0443 16.9896 44.4297 16.6562C43.8203 16.3177 43.3464 15.8229 43.0078 15.1719C42.6693 14.5208 42.5 13.724 42.5 12.7812C42.5 11.8594 42.6536 11.0625 42.9609 10.3906C43.2734 9.71354 43.7109 9.19271 44.2734 8.82812C44.8411 8.46354 45.5078 8.28125 46.2734 8.28125ZM46.2578 9.34375C45.5651 9.34375 45.013 9.57031 44.6016 10.0234C44.1901 10.4766 43.9453 11.1094 43.8672 11.9219H48.3984C48.3932 11.4115 48.3125 10.9635 48.1562 10.5781C48.0052 10.1875 47.7734 9.88542 47.4609 9.67188C47.1484 9.45312 46.7474 9.34375 46.2578 9.34375ZM61.2578 8.28125C62.2005 8.28125 62.9115 8.52865 63.3906 9.02344C63.8698 9.51302 64.1094 10.3021 64.1094 11.3906V17H62.8281V11.4531C62.8281 10.7604 62.6771 10.2422 62.375 9.89844C62.0781 9.54948 61.6354 9.375 61.0469 9.375C60.2188 9.375 59.6172 9.61458 59.2422 10.0938C58.8672 10.5729 58.6797 11.2786 58.6797 12.2109V17H57.3906V11.4531C57.3906 10.9896 57.3229 10.6042 57.1875 10.2969C57.0573 9.98958 56.8594 9.76042 56.5938 9.60938C56.3333 9.45312 56.0026 9.375 55.6016 9.375C55.0339 9.375 54.5781 9.49219 54.2344 9.72656C53.8906 9.96094 53.6406 10.3099 53.4844 10.7734C53.3333 11.2318 53.2578 11.7969 53.2578 12.4688V17H51.9609V8.4375H53.0078L53.2031 9.64844H53.2734C53.4453 9.35156 53.6615 9.10156 53.9219 8.89844C54.1823 8.69531 54.474 8.54167 54.7969 8.4375C55.1198 8.33333 55.4635 8.28125 55.8281 8.28125C56.4792 8.28125 57.0234 8.40365 57.4609 8.64844C57.9036 8.88802 58.224 9.25521 58.4219 9.75H58.4922C58.7734 9.25521 59.1589 8.88802 59.6484 8.64844C60.138 8.40365 60.6745 8.28125 61.2578 8.28125ZM74.1562 12.7031C74.1562 13.4062 74.0651 14.0339 73.8828 14.5859C73.7005 15.138 73.4375 15.6042 73.0938 15.9844C72.75 16.3646 72.3333 16.6562 71.8438 16.8594C71.3594 17.0573 70.8099 17.1562 70.1953 17.1562C69.6224 17.1562 69.0964 17.0573 68.6172 16.8594C68.1432 16.6562 67.7318 16.3646 67.3828 15.9844C67.0391 15.6042 66.7708 15.138 66.5781 14.5859C66.3906 14.0339 66.2969 13.4062 66.2969 12.7031C66.2969 11.7656 66.4557 10.9688 66.7734 10.3125C67.0911 9.65104 67.5443 9.14844 68.1328 8.80469C68.7266 8.45573 69.4323 8.28125 70.25 8.28125C71.0312 8.28125 71.7135 8.45573 72.2969 8.80469C72.8854 9.15365 73.3411 9.65885 73.6641 10.3203C73.9922 10.9766 74.1562 11.7708 74.1562 12.7031ZM67.6406 12.7031C67.6406 13.3906 67.7318 13.987 67.9141 14.4922C68.0964 14.9974 68.3776 15.388 68.7578 15.6641C69.138 15.9401 69.6276 16.0781 70.2266 16.0781C70.8203 16.0781 71.3073 15.9401 71.6875 15.6641C72.0729 15.388 72.3568 14.9974 72.5391 14.4922C72.7214 13.987 72.8125 13.3906 72.8125 12.7031C72.8125 12.0208 72.7214 11.4323 72.5391 10.9375C72.3568 10.4375 72.0755 10.0521 71.6953 9.78125C71.3151 9.51042 70.8229 9.375 70.2188 9.375C69.3281 9.375 68.6745 9.66927 68.2578 10.2578C67.8464 10.8464 67.6406 11.6615 67.6406 12.7031ZM83.8516 8.28125C84.5807 8.28125 85.2057 8.44271 85.7266 8.76562C86.2474 9.08854 86.6458 9.54167 86.9219 10.125C87.1979 10.7031 87.3359 11.3802 87.3359 12.1562V12.9609H81.4219C81.4375 13.9661 81.6875 14.7318 82.1719 15.2578C82.6562 15.7839 83.3385 16.0469 84.2188 16.0469C84.7604 16.0469 85.2396 15.9974 85.6562 15.8984C86.0729 15.7995 86.5052 15.6536 86.9531 15.4609V16.6016C86.5208 16.7943 86.0911 16.9349 85.6641 17.0234C85.2422 17.112 84.7422 17.1562 84.1641 17.1562C83.3411 17.1562 82.6224 16.9896 82.0078 16.6562C81.3984 16.3177 80.9245 15.8229 80.5859 15.1719C80.2474 14.5208 80.0781 13.724 80.0781 12.7812C80.0781 11.8594 80.2318 11.0625 80.5391 10.3906C80.8516 9.71354 81.2891 9.19271 81.8516 8.82812C82.4193 8.46354 83.0859 8.28125 83.8516 8.28125ZM83.8359 9.34375C83.1432 9.34375 82.5911 9.57031 82.1797 10.0234C81.7682 10.4766 81.5234 11.1094 81.4453 11.9219H85.9766C85.9714 11.4115 85.8906 10.9635 85.7344 10.5781C85.5833 10.1875 85.3516 9.88542 85.0391 9.67188C84.7266 9.45312 84.3255 9.34375 83.8359 9.34375ZM93.5938 8.28125C94.6094 8.28125 95.3776 8.53125 95.8984 9.03125C96.4193 9.52604 96.6797 10.3229 96.6797 11.4219V17H95.3984V11.5078C95.3984 10.7943 95.2344 10.2604 94.9062 9.90625C94.5833 9.55208 94.0859 9.375 93.4141 9.375C92.4661 9.375 91.7995 9.64323 91.4141 10.1797C91.0286 10.7161 90.8359 11.4948 90.8359 12.5156V17H89.5391V8.4375H90.5859L90.7812 9.67188H90.8516C91.0339 9.36979 91.2656 9.11719 91.5469 8.91406C91.8281 8.70573 92.1432 8.54948 92.4922 8.44531C92.8411 8.33594 93.2083 8.28125 93.5938 8.28125ZM105.391 17L102.141 8.4375H103.531L105.414 13.6172C105.544 13.9714 105.677 14.362 105.812 14.7891C105.948 15.2161 106.042 15.5599 106.094 15.8203H106.148C106.211 15.5599 106.315 15.2161 106.461 14.7891C106.607 14.3568 106.74 13.9661 106.859 13.6172L108.742 8.4375H110.133L106.875 17H105.391ZM112.805 8.4375V17H111.508V8.4375H112.805ZM112.172 5.23438C112.385 5.23438 112.568 5.30469 112.719 5.44531C112.875 5.58073 112.953 5.79427 112.953 6.08594C112.953 6.3724 112.875 6.58594 112.719 6.72656C112.568 6.86719 112.385 6.9375 112.172 6.9375C111.948 6.9375 111.76 6.86719 111.609 6.72656C111.464 6.58594 111.391 6.3724 111.391 6.08594C111.391 5.79427 111.464 5.58073 111.609 5.44531C111.76 5.30469 111.948 5.23438 112.172 5.23438ZM117.438 17L114.188 8.4375H115.578L117.461 13.6172C117.591 13.9714 117.724 14.362 117.859 14.7891C117.995 15.2161 118.089 15.5599 118.141 15.8203H118.195C118.258 15.5599 118.362 15.2161 118.508 14.7891C118.654 14.3568 118.786 13.9661 118.906 13.6172L120.789 8.4375H122.18L118.922 17H117.438ZM130.938 12.7031C130.938 13.4062 130.846 14.0339 130.664 14.5859C130.482 15.138 130.219 15.6042 129.875 15.9844C129.531 16.3646 129.115 16.6562 128.625 16.8594C128.141 17.0573 127.591 17.1562 126.977 17.1562C126.404 17.1562 125.878 17.0573 125.398 16.8594C124.924 16.6562 124.513 16.3646 124.164 15.9844C123.82 15.6042 123.552 15.138 123.359 14.5859C123.172 14.0339 123.078 13.4062 123.078 12.7031C123.078 11.7656 123.237 10.9688 123.555 10.3125C123.872 9.65104 124.326 9.14844 124.914 8.80469C125.508 8.45573 126.214 8.28125 127.031 8.28125C127.812 8.28125 128.495 8.45573 129.078 8.80469C129.667 9.15365 130.122 9.65885 130.445 10.3203C130.773 10.9766 130.938 11.7708 130.938 12.7031ZM124.422 12.7031C124.422 13.3906 124.513 13.987 124.695 14.4922C124.878 14.9974 125.159 15.388 125.539 15.6641C125.919 15.9401 126.409 16.0781 127.008 16.0781C127.602 16.0781 128.089 15.9401 128.469 15.6641C128.854 15.388 129.138 14.9974 129.32 14.4922C129.503 13.987 129.594 13.3906 129.594 12.7031C129.594 12.0208 129.503 11.4323 129.32 10.9375C129.138 10.4375 128.857 10.0521 128.477 9.78125C128.096 9.51042 127.604 9.375 127 9.375C126.109 9.375 125.456 9.66927 125.039 10.2578C124.628 10.8464 124.422 11.6615 124.422 12.7031Z" fill="#6D6DFF"/>
</svg>
